<?xml version="1.0" encoding="UTF-8"?>
<!DOCTYPE svg PUBLIC "-//W3C//DTD SVG 1.1//EN" "http://www.w3.org/Graphics/SVG/1.1/DTD/svg11.dtd">
<!-- Creator: CorelDRAW 2019 (64-Bit) -->
<svg xmlns="http://www.w3.org/2000/svg" xml:space="preserve" width="92.4278mm" height="74.0832mm" version="1.1" style="shape-rendering:geometricPrecision; text-rendering:geometricPrecision; image-rendering:optimizeQuality; fill-rule:evenodd; clip-rule:evenodd"
viewBox="0 0 9242.78 7408.32"
 xmlns:xlink="http://www.w3.org/1999/xlink"
 xmlns:xodm="http://www.corel.com/coreldraw/odm/2003">
 <defs>
  <style type="text/css">
   <![CDATA[
    .fil1 {fill:#FEFEFE;fill-rule:nonzero}
    .fil4 {fill:#FBBA12;fill-rule:nonzero}
    .fil2 {fill:#E32124;fill-rule:nonzero}
    .fil3 {fill:#FDE555;fill-rule:nonzero}
    .fil5 {fill:#CC5C3F;fill-rule:nonzero}
    .fil0 {fill:#252422;fill-rule:nonzero}
   ]]>
  </style>
 </defs>
 <g id="Слой_x0020_1">
  <metadata id="CorelCorpID_0Corel-Layer"/>
  <path class="fil0" d="M2497.03 4108.86c0,0 -144.77,918.6 121.66,1058.33 0,0 -470.52,905.49 674.06,1219.07l-78.39 246.95 787.87 176.38 586.49 598.74 589.42 -579.17 776.11 -184.21 -56.76 -262.6c0,0 1052.37,-337.13 668.27,-1215.16 0,0 156.95,-195.95 84.31,-580.1l550.69 7.83c0,0 979.91,384.15 1434.61,-380.23 274.39,-348.85 901.52,-830.96 246.94,-1779.54l378.11 -1108.87 0 -0.45 -1013.11 -262.6 -43.11 86.25c0,0 -552.7,-7.86 -709.47,94.05l98 -368.47 -403.75 0 47.06 -782.22 -462.57 -14.32 -3.91 -85.41 -662.41 47.06 3.91 105.84 -47.06 0 -27.41 -86.26 -560.53 33.09 3.88 73.56 -50.94 18.8 -19.61 -74.47 -497.77 15.7 -39.19 -152.9 -870.2 54.86 -7.83 134.87c0,0 -127.21,-248.5 -945.56,-146.62l-61.85 180.34c0,0 -58.78,-262.64 -995.6,-70.55l-50.96 626.25 99.09 145.91 18.51 172.58 -874.75 -156.88 0 129.36c0,0 -1198.8,-82.34 -1183.13,1015.19 0,399.8 215.6,682.02 301.83,772.19l-199.92 1105.35 384.14 497.82c0,0 1215.13,807.46 2010.83,-325.34z"/>
  <path class="fil1" d="M2509.39 1071.17l47.38 -5.12c49.61,-5.36 82.88,-14.46 99.76,-27.34 24.25,-18.56 34.46,-45.47 30.66,-80.72 -4.44,-41.23 -26.13,-67.8 -65.06,-79.58 -15.34,-4.48 -39.36,-4.98 -72.06,-1.45l-60.92 6.56 20.24 187.65zm-44 -408.03l54.15 -5.82c51.88,-5.61 85.56,-16.3 100.96,-32.1 15.42,-15.77 21.68,-37.04 18.8,-63.75 -3.02,-27.9 -17.79,-48.43 -44.29,-61.59 -13.33,-7.09 -38.04,-8.79 -74.15,-4.87l-72.76 7.83 17.29 160.3zm-247.84 765.6l-91.72 -850.62 -86.31 9.32 47.04 -373.59 389.21 -41.99c130.85,-14.07 226.49,-10.9 286.92,9.64 50.95,17.81 93.52,49.77 127.59,95.85 34.07,46.07 54.44,100.08 61.12,162.03 12.83,119.02 -33.83,215.54 -139.97,289.63 41.07,10.3 75.1,24.44 102.17,42.44 77.35,50.58 121.65,128.12 132.91,232.58 7.21,66.78 -2.34,128.94 -28.68,186.41 -26.32,57.54 -64.27,99.98 -113.81,127.42 -56.03,30.66 -155.12,53.63 -297.27,68.94l-389.2 41.94z"/>
  <path class="fil1" d="M3441.51 688.12l86.21 0c85.08,0 127.62,-36.83 127.62,-110.56 0,-71.33 -43.71,-106.96 -131.05,-106.96l-82.78 0 0 217.52zm577.69 627.73l-408.7 0 -155.19 -329.92 -13.8 0 0 329.92 -339.73 0 0 -832.8 -87.93 0 87.93 -356.62 379.41 0c155.21,0 273,30.3 353.5,90.94 109.19,82.02 163.8,199.11 163.8,351.26 0,160.48 -66.11,285.33 -198.3,374.51l219.01 372.71z"/>
  <path class="fil1" d="M4631.76 813.39l-121.5 -375.71 -53.27 391.27 174.77 -15.56zm513.22 418.54l-366.36 32.59 -49 -150.95 -314.22 27.98 -21.59 157.23 -361.31 32.17 157.44 -838.23 -85.69 7.62 54.51 -357.86 557.91 -49.64 428.31 1139.09z"/>
  <polygon class="fil1" points="6427.86,1324.85 6027.7,1362.98 5839,823.3 5759.56,1388.49 5357.39,1426.8 4927.46,240.23 5353.61,199.66 5514.9,769.51 5619.75,174.33 5937.89,144.07 6149.16,709.15 6200,119.09 6626.19,78.52 "/>
  <polygon class="fil1" points="7303.45,1394.24 6712.66,1388.28 6722.43,532.76 6629.01,531.7 6726.63,166.4 7085.68,170.52 7075.91,1024.18 7402.94,1027.1 "/>
  <path class="fil2" d="M324 3849.47l148.79 -798.97c268.88,145.94 499.72,212.93 692.51,200.87 131.97,-8.29 194.99,-61.07 188.9,-158.4 -2.88,-45.9 -29.05,-82.23 -78.43,-109.08 -49.37,-26.67 -146.73,-57.22 -291.99,-91.51 -513.86,-119.77 -783.06,-377.01 -807.78,-771.63 -17.75,-283.81 80.62,-511.1 295.28,-681.95 149,-117.83 311.96,-182.36 488.88,-193.4 73.88,-4.65 181.67,2.23 323.33,20.46l20.37 -119.34 708.41 73.69 -157.89 844.27c-263.57,-102.87 -465.35,-149.96 -605.24,-141.18 -147.92,9.28 -218.92,59.87 -213.17,151.73 2.04,32.42 14.06,56.13 36.27,70.98 25.26,22.82 144.31,61.63 357.14,115.99 482.1,121.82 735.79,384.11 761.01,786.8 16.76,267.51 -62.63,492.3 -238.1,674.3 -175.49,181.89 -408.49,281.98 -698.92,300.14 -145.24,9.11 -280.87,1.9 -406.9,-21.34 -126.1,-23.25 -300.26,-74.11 -522.47,-152.43z"/>
  <path class="fil2" d="M7050.19 3772.31l222.78 -747.07c254.07,163.76 477.63,248.78 670.67,255.06 132.15,4.3 199.81,-40.15 202.85,-133.42 1.44,-43.96 -21.21,-80.97 -67.88,-111.06 -46.67,-29.99 -140.72,-68.01 -282.15,-114.09 -500.38,-161.36 -744.36,-431.09 -732.12,-809.13 8.85,-271.92 128.02,-479.28 357.72,-622.19 159.35,-98.46 327.59,-144.85 504.79,-139.1 73.97,2.4 180.65,18.87 319.97,49.28l31.46 -111.76 698.36 135.43 -236.08 789.38c-252.8,-122.24 -449.26,-185.67 -589.35,-190.22 -148.13,-4.8 -223.55,36.83 -226.41,124.85 -0.99,31.04 8.75,54.75 29.46,70.94 23.03,24.06 137.93,71.93 344.73,143.37 468.6,160.41 696.67,433.49 684.14,819.29 -8.29,256.26 -108.33,462.99 -300.03,620.11 -191.7,157.06 -433.04,230.87 -723.87,221.44 -145.45,-4.73 -279.82,-24.06 -403.12,-57.82 -123.36,-33.76 -291.99,-98.25 -505.92,-193.29z"/>
  <polygon class="fil2" points="3135.27,3827.63 2554,3858.89 2480.29,2346.85 1972.19,2364.7 2087.41,1769.67 2939,1733.37 2952.98,1664.93 3737.15,1636.03 3610.86,2299.36 3061.57,2315.59 "/>
  <path class="fil2" d="M4722.99 2965.69l-174.91 -720.8 -174.91 720.8 349.82 0zm945.13 865.64l-733.25 0 -70.63 -289.66 -628.97 0 -70.62 289.66 -723.14 0 460.81 -1537.05 -171.55 0 171.55 -658.25 1116.65 0 649.15 2195.3z"/>
  <path class="fil2" d="M6206.42 2708.37l160.69 0c158.54,0 237.84,-67.59 237.84,-202.95 0,-130.92 -81.49,-196.32 -244.26,-196.32l-154.27 0 0 399.27zm1076.64 1152.21l-761.68 0 -289.24 -605.58 -25.72 0 0 605.58 -633.1 0 0 -1528.59 -163.93 0 163.93 -654.65 707.04 0c289.24,0 508.85,55.64 658.85,166.94 203.48,150.56 305.26,365.51 305.26,644.81 0,294.57 -123.23,523.73 -369.61,687.42l408.2 684.07z"/>
  <path class="fil3" d="M3420.99 5344.93l-234.21 -782.57 499.04 304.84c-66.71,137.33 -100.5,285.15 -100.5,439.63 0,178.75 47.02,353.87 136.03,507.19l-535.69 317.88 235.33 -786.97z"/>
  <path class="fil3" d="M3156.69 4523.3l245.89 821.63 -245.89 822.32 2.46 0.7 0.36 0 583.14 -346.06 -0.35 -6.72 0 -0.38c-88.55,-148.49 -139.35,-322.41 -139.35,-507.96 0,-160.51 38.1,-312.25 105.84,-446.26l-552.1 -337.27 0 0zm60.2 78.11l446.14 272.57c-63.29,135.66 -95.35,281.11 -95.35,432.85 0,176 44.76,348.51 129.78,500.84l-481.96 286.04 220.87 -738.69 3.02 -10.09 -3.02 -10.13 -219.48 -733.39z"/>
  <path class="fil4" d="M5478.11 5804.7c85.55,-151.08 130.74,-322.83 130.74,-497.87 0,-158.79 -35.53,-310.2 -105.59,-450.25l486.62 -293.23 -233.29 781.58 233.61 782.04 -512.09 -322.27z"/>
  <path class="fil4" d="M6019.84 4524.73l-539.75 325.25c71.26,136.89 111.12,292.11 111.12,456.85 0,184.15 -49.74,355.92 -136.88,503.77l566.21 356.26 -245.53 -821.93 244.83 -820.2 0 0zm-59.87 77.25l-218.76 732.85 -3 10.1 3 10.09 218.65 732.01 -458.22 -288.36c81.77,-150.1 124.85,-319.4 124.85,-491.84 0,-156.04 -33.69,-305.06 -100.26,-443.48l433.74 -261.37z"/>
  <path class="fil4" d="M3995.31 6334.23l-788.41 -173.9 532.69 -316.12c185.24,295.63 501.82,472.31 851.32,474.35l-17.39 602.68 -578.21 -587.01z"/>
  <path class="fil4" d="M3745.48 5820.12l-2.83 1.77 -583.14 346.06 826.91 182.4 602.2 611.35 1.41 -1.4 19.05 -659.7 -0.36 0c-3.88,0.36 -7.76,0.36 -11.64,0.36 -361.24,0 -677.68,-192.62 -851.6,-480.84l0 0zm-11.57 47.97c186.37,287.03 496.18,460.03 838.87,467.86l-15.7 543.46 -545.54 -553.84 -7.34 -7.44 -10.19 -2.26 -739.72 -163.16 479.62 -284.62z"/>
  <path class="fil5" d="M4626.22 6317.88c339.52,-9.45 656.24,-192.85 833.97,-482.76l514.98 324.05 -793.25 175.06 -572.95 581.69 17.25 -598.04z"/>
  <path class="fil5" d="M5454.33 5810.6c-170.74,290.32 -485.07,486.12 -845.25,490l-19.05 659.7 600.78 -609.95 829.73 -183.1 0 -0.39 -566.21 -356.26 0 0zm11.43 48.85l463.66 291.79 -746.23 164.63 -10.2 2.26 -7.3 7.44 -537.81 546.01 15.49 -536.65c333.2,-14.79 642.9,-193.92 822.39,-475.48z"/>
  <path class="fil3" d="M4588.62 3728.5l-0.36 0.35 -6.7 584.21c-382.06,5.63 -711.55,226.82 -872.77,547.51 -67.74,134.01 -105.84,285.75 -105.84,446.26 0,185.55 50.8,359.47 139.35,507.96l0 0.38 0.35 6.72 2.83 -1.77c173.92,288.22 490.36,480.84 851.6,480.84 3.88,0 7.76,0 11.64,-0.36l0.36 0c360.18,-3.88 674.51,-199.68 845.25,-490 87.14,-147.85 136.88,-319.62 136.88,-503.77 0,-164.74 -39.86,-319.96 -111.12,-456.85 -165.46,-319.26 -498.83,-537.32 -883.01,-537.32 -2.82,0 -5.64,0 -8.46,0.4l0 -584.56zm15.41 619.48c356.91,2.57 680.16,200.63 844.76,518.26 71.09,136.57 107.14,284.8 107.14,440.59 0,171.37 -45.65,339.37 -132.04,485.88 -169.3,287.9 -481.68,469.02 -815.17,472.62l-1.58 0 -1.59 0.13c-2.05,0.18 -4.09,0.22 -6.17,0.22 -0.78,0 -1.56,0 -2.3,0 -339.09,0 -646.15,-173.4 -821.41,-463.8l-1.48 -2.47 -1.58 -2.64c-87.92,-147.47 -134.38,-316.87 -134.38,-489.94 0,-151.56 34.33,-296.37 102.06,-430.43 156.81,-311.89 466.59,-511.91 813.22,-527.22l0 3.59 38.46 -4.61 12.06 -0.18z"/>
  <path class="fil1" d="M3010.53 4469.48l-329.27 -148.95c0,0 -234.32,683.05 203.83,986.44 0,0 -157.9,22.05 -246.95,0 0,0 -86.22,561.86 372.39,828.43l254.79 -790.47 -254.79 -875.45z"/>
  <path class="fil1" d="M6152.27 4469.48l329.25 -148.95c0,0 234.35,683.05 -203.8,986.44 0,0 157.86,22.05 246.94,0 0,0 86.22,561.86 -372.39,828.43l-254.78 -790.47 254.78 -875.45z"/>
  <path class="fil3" d="M5486.96 4825.22c-175.96,-324.85 -511.06,-526.84 -880.71,-530.16l0 -523.52 575.67 584.76 793.25 174.7 -488.21 294.22z"/>
  <path class="fil3" d="M4588.62 3728.5l0 584.56c2.82,-0.4 5.64,-0.4 8.46,-0.4 384.18,0 717.55,218.06 883.01,537.32l539.75 -325.25 0.7 -1.77 -829.73 -182.74 -602.19 -611.72 0 0zm35.27 86.11l541.76 550.33 7.34 7.46 10.23 2.24 744.96 164.08 -434.65 261.94c-178.4,-315.94 -506.66,-513.61 -869.64,-522.92l0 -463.13z"/>
  <path class="fil3" d="M5444.31 4891.89l-8.71 -16.37c-138.82,-260.56 -844.66,-461.64 -851.78,-463.66l-12.84 -3.63 0 -95.17 35.27 0 0 68.54c98.78,28.89 697.83,212.62 851.26,461.33l13.54 -8.08 18.07 30.26 -44.81 26.78z"/>
  <polygon class="fil3" points="5444.88,5794.09 5409.6,5793.12 5433.62,4866.92 5468.9,4867.87 "/>
  <path class="fil3" d="M4626.72 6301.12l-35.28 -1.08 0.56 -18.59c-99.59,-27.91 -682.62,-200.09 -834.95,-447.67l-2.61 1.54 -17.92 -30.41 33.83 -19.93 8.68 16.26c138.67,260.36 828.71,448 835.66,449.86l13.61 3.64 -1.58 46.38z"/>
  <path class="fil1" d="M3202.85 4530.82l792.46 -174.52 574.82 -583.91 -6.03 523.42c-364.63,11.49 -692.26,216.64 -862.3,539.81l-498.95 -304.8z"/>
  <path class="fil3" d="M4588.26 3728.85l-601.84 611.37 -829.73 182.74 0 0.34 552.1 337.27c161.22,-320.69 490.71,-541.88 872.77,-547.51l6.7 -584.21 0 0zm-36.26 87.14l-5.33 462.84c-358,17.11 -678.92,217.67 -851.6,532.03l-445.6 -272.24 744.54 -163.98 10.19 -2.24 7.34 -7.46 540.46 -548.95z"/>
  <path class="fil3" d="M3720.92 4888.86l-21.45 -13.34 11.19 -17.96 -3.42 -3.8c22.4,-20.04 539.18,-479.12 851.74,-479.12 1.48,0 2.93,0 4.38,0.04l0.56 -61.8 35.28 0.32 -0.88 98.98 -18.84 -1.47c-295.52,-22.66 -843.21,464.42 -848.71,469.33l-9.85 8.82z"/>
  <polygon class="fil3" points="3725.02,5822.91 3725.02,5821.89 3760.29,5821.89 "/>
  <polygon class="fil3" points="3724.66,5815.24 3701.38,4867.33 3736.66,4866.49 3759.94,5814.38 "/>
  <path class="fil0" d="M5591.21 5306.83c0,184.15 -49.74,355.92 -136.88,503.77 -170.74,290.32 -485.07,486.12 -845.25,490l-0.36 0c-3.88,0.36 -7.76,0.36 -11.64,0.36 -361.24,0 -677.68,-192.62 -851.6,-480.84 -1.06,-1.76 -2.12,-3.18 -3.18,-4.95l0 -0.38c-88.55,-148.49 -139.35,-322.41 -139.35,-507.96 0,-160.51 38.1,-312.25 105.84,-446.26 161.22,-320.69 490.71,-541.88 872.77,-547.51 2.12,-0.4 4.59,-0.4 7.06,0 2.82,-0.4 5.64,-0.4 8.46,-0.4 384.18,0 717.55,218.06 883.01,537.32 71.26,136.89 111.12,292.11 111.12,456.85z"/>
  <path class="fil4" d="M5007.15 5893.96l0 196.85 -836.43 0 0 -196.85c-240.99,-128.38 -402.56,-364.38 -402.56,-633.94 0,-407.11 367.6,-736.96 820.56,-736.96 453.32,0 820.56,329.85 820.56,736.96 0,269.56 -161.22,505.56 -402.13,633.94z"/>
  <path class="fil0" d="M5205.59 5480.78c0,127.74 -103.54,231.29 -231.28,231.29 -127.71,0 -231.25,-103.55 -231.25,-231.29 0,-127.7 103.54,-231.25 231.25,-231.25 127.74,0 231.28,103.55 231.28,231.25z"/>
  <path class="fil0" d="M4449.09 5480.78c0,127.74 -103.54,231.29 -231.28,231.29 -127.74,0 -231.28,-103.55 -231.28,-231.29 0,-127.7 103.54,-231.25 231.28,-231.25 127.74,0 231.28,103.55 231.28,231.25z"/>
  <path class="fil0" d="M4656.21 5344.93c-13.62,0 -27.24,-5.22 -37.57,-15.67 -20.6,-20.74 -20.46,-54.22 0.31,-74.82l150.54 -149.3c20.74,-20.56 54.25,-20.46 74.82,0.32 20.6,20.71 20.46,54.22 -0.32,74.83l-150.53 149.29c-10.33,10.23 -23.78,15.35 -37.25,15.35z"/>
  <path class="fil0" d="M4500.03 5344.93c13.62,0 27.24,-5.22 37.57,-15.67 20.57,-20.74 20.47,-54.22 -0.31,-74.82l-150.53 -149.3c-20.75,-20.56 -54.3,-20.46 -74.86,0.32 -20.57,20.71 -20.43,54.22 0.31,74.83l150.57 149.29c10.3,10.23 23.78,15.35 37.25,15.35z"/>
  <polygon class="fil0" points="4588.72,5541.63 4465.78,5754.61 4711.7,5754.61 "/>
  <path class="fil1" d="M4446.83 4692.46c68.16,82.7 28.44,227.97 -88.68,324.49 -117.13,96.51 -267.34,107.73 -335.46,25.01 -68.16,-82.69 -28.43,-227.96 88.69,-324.49 117.12,-96.52 267.33,-107.73 335.45,-25.01z"/>
 </g>
</svg>
