<svg width="264" height="52" xmlns="http://www.w3.org/2000/svg">
  <g fill="none" fill-rule="evenodd">
    <path d="M28.04 16.715l-4.818-6.628a3.947 3.947 0 0 0-6.682.475l-4.11 7.771-7.942-1.736A3.473 3.473 0 0 0 .36 20.76l4.536 19.972a4.183 4.183 0 0 0 4.444 3.24l26.057-2.28a4.42 4.42 0 0 0 4.033-4.247l.749-21.34a3.473 3.473 0 0 0-5.122-3.179l-7.017 3.79z" fill="#000" fill-rule="nonzero"/>
    <path d="M3.285 20.095l4.536 19.972c.131.577.668.968 1.257.917l26.058-2.28a1.42 1.42 0 0 0 1.295-1.365l.75-21.34a.473.473 0 0 0-.698-.433L29.16 19.52a2.604 2.604 0 0 1-3.343-.76l-5.022-6.909a.947.947 0 0 0-1.603.114l-4.335 8.196a2.367 2.367 0 0 1-2.598 1.206l-8.411-1.84a.473.473 0 0 0-.563.568z" fill="#EA6F24"/>
    <path d="M33.819 17.004a.71.71 0 0 1 .119.426l-.866 19.908a1.894 1.894 0 0 1-1.112 1.644L9.078 40.984a1.183 1.183 0 0 1-1.257-.917L3.285 20.095a.473.473 0 0 1 .563-.567l8.411 1.839a2.367 2.367 0 0 0 2.598-1.206l4.335-8.196a.947.947 0 0 1 1.603-.114l5.022 6.909a2.604 2.604 0 0 0 3.343.76l4.659-2.516z" fill="#FABC3B" fill-rule="nonzero"/>
    <g fill="#FABC3B">
      <path d="M64.94 38.434l-12.217.755-1.058-17.147-1.665.103 1.227-7.188 12.501-.772c1.747-.108 3.245.357 4.494 1.394 1.249 1.037 1.927 2.43 2.035 4.177.15 2.433-.764 4.315-2.744 5.646 1.402.838 2.39 1.666 2.961 2.484.627.934.987 2.168 1.082 3.703.118 1.913-.494 3.516-1.836 4.808-1.227 1.237-2.82 1.916-4.78 2.037zm18.625.447l-2.696-7.403-.559 7.148-7.57-.591 1.336-17.092-1.663-.13 2.218-6.983 10.86.85c2.57.2 4.605 1.178 6.105 2.933 1.523 1.757 2.185 3.921 1.984 6.492-.263 3.374-1.783 5.819-4.558 7.334l3.598 8.15-9.055-.708zm26.424-.263l-.938-3.308-6.862.544-.724 3.44-7.746.615 3.338-18.068-1.698.135 1.854-6.699 12.025-.954 8.78 23.659-8.029.636zm32.669-.949l-7.88 1.042-3.88-9.87-1.22 10.545-7.914 1.047-8.035-23.427 7.386-.977 3.347 10.155 1.332-10.774 6.26-.828 4.133 9.872.44-10.477 7.387-.977-1.356 24.67zm14.515 1.846l-10.96-.28.435-16.997-1.667-.042 1.853-7.232 7.59.195-.427 16.712 5.107.131-1.931 7.513zm21.463.427c-2.776.466-5.693.165-8.75-.905l.726-7.249 3.343.842c1.342.279 2.468.342 3.377.189 1.05-.177 1.513-.638 1.387-1.385-.094-.56-1.028-.979-2.801-1.257-2.291-.358-3.974-.808-5.047-1.347-1.919-.998-3.07-2.64-3.454-4.927-.391-2.333.082-4.297 1.422-5.89 1.258-1.506 3.077-2.46 5.456-2.86l1.12-.188c.14-.023.346-.045.618-.068.272-.021.61-.042 1.015-.062l.116-.811 6.504.167-.86 7.954c-.766-.279-1.729-.513-2.888-.702-1.307-.213-2.275-.266-2.905-.16-1.12.188-1.617.656-1.491 1.402.078.467.992.841 2.743 1.123 2.27.387 3.92.853 4.948 1.4 1.898 1.025 3.038 2.67 3.418 4.933.435 2.59-.154 4.8-1.765 6.63-1.496 1.668-3.572 2.724-6.232 3.171zm23.072-17.138l-4.47-.036-.14 17.001-7.52-.061.103-17.108-4.435-.037 1.69-7.156 9.722.08.22-.957 6.884.056-2.054 8.218zm14.544 17.428l-.35-3.42-6.852-.657-1.31 3.262-7.735-.74 6.423-17.214-1.695-.162 2.988-6.275 12.009 1.15L224.27 41l-8.018-.768zm23.192-17.988l-4.442.509 1.934 16.891-7.473.857-1.981-16.994-4.406.505.806-7.309 9.658-1.107.103-.976 6.838-.783-1.037 8.407zm8.034 18.296c-2.803-.268-5.542-1.315-8.219-3.14l2.577-6.814 3.012 1.68c1.224.616 2.295.968 3.213 1.056 1.06.101 1.626-.224 1.698-.979.054-.565-.74-1.211-2.38-1.94-2.12-.939-3.63-1.809-4.527-2.608-1.596-1.46-2.282-3.344-2.062-5.652.226-2.356 1.191-4.13 2.898-5.321 1.605-1.13 3.608-1.58 6.01-1.35l1.13.108c.141.014.346.045.615.095.268.05.6.117.996.202l.322-.754L259 16.97l-2.888 7.46c-.668-.467-1.538-.943-2.608-1.426-1.208-.543-2.13-.845-2.765-.906-1.13-.109-1.731.214-1.803.968-.045.472.74 1.07 2.359 1.795 2.093.961 3.566 1.839 4.417 2.634 1.569 1.481 2.244 3.364 2.025 5.649-.25 2.615-1.39 4.598-3.42 5.948-1.876 1.223-4.155 1.706-6.84 1.449zM104.546 22.03l-1.305 7.332 3.784-.3-2.48-7.032zm-45.147 6.683l.201 3.259 1.664-.103c1.37-.085 2.02-.694 1.95-1.827-.065-1.04-.935-1.507-2.611-1.404l-1.204.075zm22.252-7.249l-.312 3.999 1.804.14c1.72.135 2.633-.446 2.734-1.744.107-1.368-.7-2.12-2.422-2.254l-1.804-.141zm-22.726-.44l.174 2.835 1.665-.103c1.51-.093 2.237-.612 2.179-1.557-.058-.944-.938-1.365-2.637-1.26l-1.381.086zm154.846 1.927l-2.558 6.993 3.779.362-1.221-7.355z" stroke="#000" stroke-width="6"/>
      <path d="M64.94 38.434l-12.217.755-1.058-17.147-1.665.103 1.227-7.188 12.501-.772c1.747-.108 3.245.357 4.494 1.394 1.249 1.037 1.927 2.43 2.035 4.177.15 2.433-.764 4.315-2.744 5.646 1.402.838 2.39 1.666 2.961 2.484.627.934.987 2.168 1.082 3.703.118 1.913-.494 3.516-1.836 4.808-1.227 1.237-2.82 1.916-4.78 2.037zm18.625.447l-2.696-7.403-.559 7.148-7.57-.591 1.336-17.092-1.663-.13 2.218-6.983 10.86.85c2.57.2 4.605 1.178 6.105 2.933 1.523 1.757 2.185 3.921 1.984 6.492-.263 3.374-1.783 5.819-4.558 7.334l3.598 8.15-9.055-.708zm26.424-.263l-.938-3.308-6.862.544-.724 3.44-7.746.615 3.338-18.068-1.698.135 1.854-6.699 12.025-.954 8.78 23.659-8.029.636zm32.669-.949l-7.88 1.042-3.88-9.87-1.22 10.545-7.914 1.047-8.035-23.427 7.386-.977 3.347 10.155 1.332-10.774 6.26-.828 4.133 9.872.44-10.477 7.387-.977-1.356 24.67zm14.515 1.846l-10.96-.28.435-16.997-1.667-.042 1.853-7.232 7.59.195-.427 16.712 5.107.131-1.931 7.513zm21.463.427c-2.776.466-5.693.165-8.75-.905l.726-7.249 3.343.842c1.342.279 2.468.342 3.377.189 1.05-.177 1.513-.638 1.387-1.385-.094-.56-1.028-.979-2.801-1.257-2.291-.358-3.974-.808-5.047-1.347-1.919-.998-3.07-2.64-3.454-4.927-.391-2.333.082-4.297 1.422-5.89 1.258-1.506 3.077-2.46 5.456-2.86l1.12-.188c.14-.023.346-.045.618-.068.272-.021.61-.042 1.015-.062l.116-.811 6.504.167-.86 7.954c-.766-.279-1.729-.513-2.888-.702-1.307-.213-2.275-.266-2.905-.16-1.12.188-1.617.656-1.491 1.402.078.467.992.841 2.743 1.123 2.27.387 3.92.853 4.948 1.4 1.898 1.025 3.038 2.67 3.418 4.933.435 2.59-.154 4.8-1.765 6.63-1.496 1.668-3.572 2.724-6.232 3.171zm23.072-17.138l-4.47-.036-.14 17.001-7.52-.061.103-17.108-4.435-.037 1.69-7.156 9.722.08.22-.957 6.884.056-2.054 8.218zm14.544 17.428l-.35-3.42-6.852-.657-1.31 3.262-7.735-.74 6.423-17.214-1.695-.162 2.988-6.275 12.009 1.15L224.27 41l-8.018-.768zm23.192-17.988l-4.442.509 1.934 16.891-7.473.857-1.981-16.994-4.406.505.806-7.309 9.658-1.107.103-.976 6.838-.783-1.037 8.407zm8.034 18.296c-2.803-.268-5.542-1.315-8.219-3.14l2.577-6.814 3.012 1.68c1.224.616 2.295.968 3.213 1.056 1.06.101 1.626-.224 1.698-.979.054-.565-.74-1.211-2.38-1.94-2.12-.939-3.63-1.809-4.527-2.608-1.596-1.46-2.282-3.344-2.062-5.652.226-2.356 1.191-4.13 2.898-5.321 1.605-1.13 3.608-1.58 6.01-1.35l1.13.108c.141.014.346.045.615.095.268.05.6.117.996.202l.322-.754L259 16.97l-2.888 7.46c-.668-.467-1.538-.943-2.608-1.426-1.208-.543-2.13-.845-2.765-.906-1.13-.109-1.731.214-1.803.968-.045.472.74 1.07 2.359 1.795 2.093.961 3.566 1.839 4.417 2.634 1.569 1.481 2.244 3.364 2.025 5.649-.25 2.615-1.39 4.598-3.42 5.948-1.876 1.223-4.155 1.706-6.84 1.449zM104.546 22.03l-1.305 7.332 3.784-.3-2.48-7.032zm-45.147 6.683l.201 3.259 1.664-.103c1.37-.085 2.02-.694 1.95-1.827-.065-1.04-.935-1.507-2.611-1.404l-1.204.075zm22.252-7.249l-.312 3.999 1.804.14c1.72.135 2.633-.446 2.734-1.744.107-1.368-.7-2.12-2.422-2.254l-1.804-.141zm-22.726-.44l.174 2.835 1.665-.103c1.51-.093 2.237-.612 2.179-1.557-.058-.944-.938-1.365-2.637-1.26l-1.381.086zm154.846 1.927l-2.558 6.993 3.779.362-1.221-7.355z"/>
    </g>
  </g>
</svg>
